# xmcd
#
# Track frame offsets:
#	150
#	13277
#	26615
#	40592
#	52757
#	66882
#	80447
#	91177
#	103072
#	116229
#
# Disc length: 1769 seconds
#
# Revision: 0
# Processed by: cddbd v1.4PL0 Copyright (c) Steve Scherf et al.
# Submitted via: audiograbber 1.82.00
#
DISCID=7806e70a
DTITLE=Billie Holiday - God Bless The Child
DYEAR=1900
DGENRE=
TTITLE0=God Bless The Child
TTITLE1=Wherever You Are
TTITLE2=More Than You Know
TTITLE3=What Is This Going To Get Us
TTITLE4=Until The Real Thing Comes Along
TTITLE5=Georgia On My Mind
TTITLE6=Romance In The Dark
TTITLE7=Keeps On Rainin'
TTITLE8=He's Funny That Way
TTITLE9=Fine And Mellow
EXTD=
EXTT0=
EXTT1=
EXTT2=
EXTT3=
EXTT4=
EXTT5=
EXTT6=
EXTT7=
EXTT8=
EXTT9=
PLAYORDER=
